# xmcd CD database file
#
# Track frame offsets:
#	183
#	12423
#	32638
#	51193
#	63985
#	84493
#	103353
#	122138
#	144025
#	164515
#	175365
#	185510
#	213750
#	238970
#	251303
#	270410
#	294475
#	310463
#
# Disc length: 4309 seconds
#
# Revision: 3
# Processed by: cddbd v1.5PL3 Copyright (c) Steve Scherf et al.
# Submitted via: CDex 1.50
#
DISCID=0310d312
DTITLE=Various Artist - Still got the blues 2
DYEAR=1995
DGENRE=Blues
TTITLE0=John Lee Hooker - I'm in the mood
TTITLE1=B.B. King - Sweet sixteen
TTITLE2=Robert Cray - The score
TTITLE3=Fleetwood Mac - Man of the world
TTITLE4=Delbert McClinton - I've got dreams to remeber
TTITLE5=Walter Trout band - Time for movin' on
TTITLE6=Junior Wells - Oh pretty woman
TTITLE7=Stevie Ray Vaughan and Lonnie Mack - Oreco cookie blues
TTITLE8=Koko Taylor - I'm a woman
TTITLE9=Howlin' Wolf - Little red rooster
TTITLE10=Little Willie John - Need your love so bad
TTITLE11=Buddy Guy - I found a true love
TTITLE12=Albert Collins - Blue Monday hangover
TTITLE13=J.J. Cale - Jailer
TTITLE14=The Paladins - You and I
TTITLE15=John Mayall - Undercoveragent of blues
TTITLE16=Brendan Croker - Let me in
TTITLE17=Muddy Waters - I'm your hoochie coochie man
EXTD=YEAR: 1995
EXTT0=
EXTT1=
EXTT2=
EXTT3=
EXTT4=
EXTT5=
EXTT6=
EXTT7=
EXTT8=
EXTT9=
EXTT10=
EXTT11=
EXTT12=
EXTT13=
EXTT14=
EXTT15=
EXTT16=
EXTT17=
PLAYORDER=
